<svg xmlns="http://www.w3.org/2000/svg" viewBox="0 0 342.84 140.98"><defs><style>.cls-1{fill:#33b0e5;}.cls-2{fill:#da3f8a;}</style></defs><title>404</title><g id="Calque_2" data-name="Calque 2"><g id="Calque_1-2" data-name="Calque 1"><path class="cls-1" d="M82.84,90.19H99.89v18.38H82.84V139.1H59.94V108.56H.66L0,94.61,59.18,1.88H82.84Zm-58.8,0h35.9V32.89l-1.7,3Z"/><path class="cls-2" d="M228.25,74.07q0,20.17-7,35.39t-19.93,23.37q-13,8.15-29.83,8.15a55,55,0,0,1-29.73-8.15,53.52,53.52,0,0,1-20.17-23.23q-7.12-15.08-7.21-34.77V67.1q0-20.07,7.12-35.43T141.59,8.15Q154.55,0,171.33,0t29.73,8.06q13,8.06,20,23.18t7.16,35.2ZM204.4,66.91q0-22.8-8.62-35T171.33,19.79q-15.46,0-24.17,12.11t-8.91,34.26v7.92q0,22.62,8.81,35t24.46,12.34q15.83,0,24.36-12.06t8.53-35.24Z"/><path class="cls-1" d="M325.78,90.19h17.06v18.38H325.78V139.1h-22.9V108.56H243.61l-.66-13.95L302.13,1.88h23.65Zm-58.8,0h35.91V32.89l-1.7,3Z"/><rect class="cls-2" x="133.74" y="18.27" width="73.5" height="104.5"/></g></g></svg>