<svg xmlns="http://www.w3.org/2000/svg" viewBox="0 0 75.5 93.5"><defs><style>.cls-1{fill:#0f0166;}</style></defs><title>Fichier 3</title><g id="Calque_2" data-name="Calque 2"><g id="Calque_1-2" data-name="Calque 1"><path class="cls-1" d="M75.5,49.13q0,13.37-4.62,23.47a35,35,0,0,1-13.22,15.5A36.36,36.36,0,0,1,37.88,93.5a36.44,36.44,0,0,1-19.72-5.41A35.5,35.5,0,0,1,4.78,72.69,54.06,54.06,0,0,1,0,49.63V44.5A55.34,55.34,0,0,1,4.72,21,35.47,35.47,0,0,1,18,5.41,36.25,36.25,0,0,1,37.75,0,36.57,36.57,0,0,1,57.47,5.34,35,35,0,0,1,70.75,20.72q4.69,10,4.75,23.34ZM59.69,44.38q0-15.12-5.72-23.19T37.75,13.13q-10.25,0-16,8T15.81,43.88v5.25q0,15,5.84,23.19T37.88,80.5q10.5,0,16.16-8t5.66-23.37Z"/><rect class="cls-1" x="13.63" y="10.92" width="46.67" height="70.33"/></g></g></svg>