<svg id="svg8" xmlns="http://www.w3.org/2000/svg" viewBox="0 0 2967.94 488.5"><defs><style>.cls-1,.cls-3{fill:#33b0e5;stroke:#33b0e5;}.cls-1{stroke-width:0.31px;}.cls-10,.cls-2{fill:#3bb889;stroke:#3bb889;}.cls-2{stroke-width:0.64px;}.cls-3{stroke-width:0.31px;}.cls-12,.cls-4,.cls-7,.cls-9{fill:#da3f8a;stroke:#da3f8a;}.cls-4{stroke-opacity:0.99;stroke-width:0.29px;}.cls-13,.cls-5,.cls-8{fill:#0f0166;stroke:#0f0166;}.cls-5{stroke-width:0.29px;}.cls-11,.cls-6{fill:#fcb915;stroke:#fcb915;}.cls-6{stroke-width:0.28px;}.cls-7{stroke-width:0.3px;}.cls-8{stroke-width:0.29px;}.cls-9{stroke-width:0.26px;}.cls-10{stroke-width:0.58px;}.cls-11{stroke-width:0.31px;}.cls-12{stroke-width:0.33px;}.cls-13{stroke-width:0.26px;}</style></defs><title>Léon&amp;apos;art1</title><g id="layer1"><rect id="rect820-3" class="cls-1" x="1424.34" y="12.31" width="106.83" height="475.87"/><path id="rect815" class="cls-2" d="M1398.39,112.45l144,251.71L1675.7,599.42H1398.39Z" transform="translate(-144.52 -111.24)"/><rect id="rect820" class="cls-3" x="0.16" y="10.92" width="106.83" height="475.87"/><rect id="rect822" class="cls-4" x="0.17" y="381.42" width="277.76" height="106.88"/><rect id="rect824" class="cls-5" x="0.16" y="381.4" width="106.91" height="106.91"/><rect id="rect822-0" class="cls-6" x="351.94" y="10.91" width="277.8" height="99.18"/><rect id="rect822-0-7" class="cls-6" x="351.94" y="197.87" width="277.8" height="99.18"/><rect id="rect822-0-9" class="cls-6" x="351.94" y="389.14" width="277.8" height="99.18"/><circle id="path873" class="cls-7" cx="944.09" cy="245.94" r="236.27"/><circle id="path877" class="cls-8" cx="943.38" cy="239.4" r="98.8"/><path id="path894" class="cls-9" d="M1969.52,117.32l219,482.1H1750.48Z" transform="translate(-144.52 -111.24)"/><path id="rect815-3" class="cls-10" d="M2316.07,239.87l159.73,185.81,147.78,173.67H2316.07Z" transform="translate(-144.52 -111.24)"/><ellipse id="path911" class="cls-11" cx="2325.48" cy="165.36" rx="156.89" ry="164.08"/><rect id="rect820-3-6" class="cls-1" x="2723.66" y="7.12" width="106.83" height="475.87"/><rect id="rect822-0-8" class="cls-12" x="2581.02" y="7.11" width="386.75" height="99.04"/><rect id="rect948" class="cls-13" x="2723.66" y="7.12" width="106.84" height="99.11"/></g></svg>