<svg xmlns="http://www.w3.org/2000/svg" viewBox="0 0 128.75 24.31"><defs><style>.cls-1{fill:#3bb889;}</style></defs><title>notfound</title><g id="Calque_2" data-name="Calque 2"><g id="Calque_1-2" data-name="Calque 1"><path class="cls-1" d="M22.8.19,17.58,24.13H13.16L9.45,8.25,5.8,24.13h-3L7.58,2.2A6.44,6.44,0,0,0,4.25,4.63a6.94,6.94,0,0,0-1.11,4,7.3,7.3,0,0,0,.23,1.88A3.91,3.91,0,0,0,4,11.88,4.57,4.57,0,0,1,1,11,3.28,3.28,0,0,1,0,8.41,7,7,0,0,1,.35,6.2a8.12,8.12,0,0,1,1-2A8.74,8.74,0,0,1,2.86,2.49a9.9,9.9,0,0,1,2-1.33A10.57,10.57,0,0,1,7.14.3,10.72,10.72,0,0,1,9.72,0,7.37,7.37,0,0,1,11,.1a8.35,8.35,0,0,1,1.23.34l3.86,17.13L19.69.19Z"/><path class="cls-1" d="M39.17,12a7.85,7.85,0,0,1-2.42,1.67,12.7,12.7,0,0,1-3.25,1,15.06,15.06,0,0,1-.85,4,10.69,10.69,0,0,1-1.68,3,7.26,7.26,0,0,1-2.33,1.92,6,6,0,0,1-2.78.67A7.39,7.39,0,0,1,23.8,24a4.17,4.17,0,0,1-1.62-.87,4,4,0,0,1-1.06-1.56,6.33,6.33,0,0,1-.38-2.34,13.42,13.42,0,0,1,.2-2.13,15.38,15.38,0,0,1,.63-2.46,14.71,14.71,0,0,1,1.11-2.48A9.51,9.51,0,0,1,24.32,10a7.91,7.91,0,0,1,2.26-1.54,7,7,0,0,1,2.92-.59q4.11,0,4.11,5.11v0a.4.4,0,0,0,.15,0H34a5,5,0,0,0,1.21-.16,10,10,0,0,0,1.3-.43,11.1,11.1,0,0,0,1.28-.62q.62-.35,1.14-.71Zm-8.33,2.75a1,1,0,0,1-.68-.49,1.91,1.91,0,0,1-.18-.85,2,2,0,0,1,.27-1.1,1.65,1.65,0,0,1,.73-.63,5.72,5.72,0,0,0-.11-.87,1.87,1.87,0,0,0-.22-.58.8.8,0,0,0-.35-.32,1.33,1.33,0,0,0-.54-.09,1.71,1.71,0,0,0-1.11.45,5.25,5.25,0,0,0-1,1.18,10.77,10.77,0,0,0-.87,1.68A16.54,16.54,0,0,0,26.09,15a17.52,17.52,0,0,0-.44,2,11.28,11.28,0,0,0-.16,1.77,7.89,7.89,0,0,0,.09,1.3,2,2,0,0,0,.28.79,1,1,0,0,0,.51.4,2.32,2.32,0,0,0,.77.11,1.78,1.78,0,0,0,1.16-.52,5.33,5.33,0,0,0,1.09-1.41,11.16,11.16,0,0,0,.88-2.11A15.69,15.69,0,0,0,30.84,14.72Z"/><path class="cls-1" d="M37.28,9.41H36.22l.27-1.28h1l1-4.42,4.73-.64q-.08.31-.16.68t-.16.77q-.17.67-.37,1.6t-.41,2h1.92l-.25,1.28H41.89l-2,9.59a5.49,5.49,0,0,0-.12.6,3.89,3.89,0,0,0,0,.52,1.42,1.42,0,0,0,.23.83,1,1,0,0,0,.88.33h.41a1.32,1.32,0,0,0,.44-.09,7.11,7.11,0,0,1-.78,1.65,4,4,0,0,1-.86.95,2.36,2.36,0,0,1-.88.43,4,4,0,0,1-.87.1A3.58,3.58,0,0,1,36.78,24a2.6,2.6,0,0,1-1-.76,3.16,3.16,0,0,1-.56-1.15A5.46,5.46,0,0,1,35,20.7a8.12,8.12,0,0,1,.19-1.7Z"/><path class="cls-1" d="M53.81,24.13,58.42,2.75a4.76,4.76,0,0,0-1.69.35,3.1,3.1,0,0,0-1.31,1.07,5.66,5.66,0,0,0-.85,2,13.93,13.93,0,0,0-.3,3.19,5.68,5.68,0,0,0,.07,1,3.59,3.59,0,0,0,.16.61,2.64,2.64,0,0,0,.16.35.46.46,0,0,1,.07.22,5.94,5.94,0,0,1-1.47-.16,2.74,2.74,0,0,1-1.08-.52,2.23,2.23,0,0,1-.66-1,4.14,4.14,0,0,1-.23-1.47,8.33,8.33,0,0,1,.59-3.09,6.94,6.94,0,0,1,1.9-2.66A9.74,9.74,0,0,1,57.16.83a15.85,15.85,0,0,1,5-.7,10.66,10.66,0,0,1,1.09.06l1.28.13L66,.45q.75.06,1.52.06A12.49,12.49,0,0,0,69,.43a7.24,7.24,0,0,0,1.4-.3q-.16.5-.3,1.09a4.89,4.89,0,0,1-.45,1.13,3.44,3.44,0,0,1-.83,1A3.23,3.23,0,0,1,67.36,4a14.65,14.65,0,0,1-2.25-.17Q64,3.63,62.88,3.36L61.53,9.72H66.2l-.52,2.38H61l-2.59,12Z"/><path class="cls-1" d="M83.67,12a7.85,7.85,0,0,1-2.42,1.67,12.7,12.7,0,0,1-3.25,1,15.06,15.06,0,0,1-.85,4,10.68,10.68,0,0,1-1.68,3,7.26,7.26,0,0,1-2.33,1.92,6,6,0,0,1-2.78.67A7.39,7.39,0,0,1,68.3,24a4.17,4.17,0,0,1-1.62-.87,4,4,0,0,1-1.06-1.56,6.33,6.33,0,0,1-.38-2.34,13.42,13.42,0,0,1,.2-2.13,15.38,15.38,0,0,1,.63-2.46,14.71,14.71,0,0,1,1.11-2.48A9.51,9.51,0,0,1,68.82,10a7.91,7.91,0,0,1,2.26-1.54A7,7,0,0,1,74,7.84q4.11,0,4.11,5.11v0a.4.4,0,0,0,.15,0h.2a5,5,0,0,0,1.21-.16,10,10,0,0,0,1.3-.43,11.1,11.1,0,0,0,1.28-.62q.63-.35,1.14-.71Zm-8.33,2.75a1,1,0,0,1-.68-.49,1.91,1.91,0,0,1-.18-.85,2,2,0,0,1,.27-1.1,1.65,1.65,0,0,1,.73-.63,5.66,5.66,0,0,0-.11-.87,1.86,1.86,0,0,0-.22-.58.8.8,0,0,0-.35-.32,1.33,1.33,0,0,0-.54-.09,1.71,1.71,0,0,0-1.11.45,5.25,5.25,0,0,0-1,1.18,10.77,10.77,0,0,0-.87,1.68A16.54,16.54,0,0,0,70.59,15a17.52,17.52,0,0,0-.44,2A11.28,11.28,0,0,0,70,18.78a7.89,7.89,0,0,0,.09,1.3,2,2,0,0,0,.28.79,1,1,0,0,0,.51.4,2.32,2.32,0,0,0,.77.11,1.78,1.78,0,0,0,1.16-.52,5.33,5.33,0,0,0,1.09-1.41,11.16,11.16,0,0,0,.88-2.11A15.69,15.69,0,0,0,75.34,14.72Z"/><path class="cls-1" d="M97.23,18.39a14.31,14.31,0,0,1-1,2.25,9.53,9.53,0,0,1-1.1,1.61A6.22,6.22,0,0,1,94,23.31a5.8,5.8,0,0,1-1.16.63,5.14,5.14,0,0,1-1.08.3,6.49,6.49,0,0,1-.94.08,3.08,3.08,0,0,1-2.19-.76,3.54,3.54,0,0,1-1-2.27,7.93,7.93,0,0,1-1.23,1.58,5.86,5.86,0,0,1-1.23.92,4,4,0,0,1-1.19.43,6.39,6.39,0,0,1-1.08.1,4.07,4.07,0,0,1-1.34-.22,2.81,2.81,0,0,1-1.09-.69,3.29,3.29,0,0,1-.73-1.19,5,5,0,0,1-.27-1.73,8.3,8.3,0,0,1,.06-1q.06-.52.19-1.13L81.91,8.13h4.61L84.22,19a5,5,0,0,0-.09.91,2,2,0,0,0,.2.93.77.77,0,0,0,.75.38,1.78,1.78,0,0,0,.86-.21,2.5,2.5,0,0,0,.71-.59,3.86,3.86,0,0,0,.56-.9,9,9,0,0,0,.43-1.13L89.81,8.13h4.61L92.13,19a3.24,3.24,0,0,0-.11.52A4.29,4.29,0,0,0,92,20a1.14,1.14,0,0,0,.32.93,1.57,1.57,0,0,0,1,.26,1.82,1.82,0,0,0,.87-.21,2.55,2.55,0,0,0,.73-.59,3.93,3.93,0,0,0,.58-.9,7,7,0,0,0,.42-1.13Z"/><path class="cls-1" d="M113.39,18.39a14,14,0,0,1-1.45,3.14,7.49,7.49,0,0,1-1.56,1.79,4.18,4.18,0,0,1-1.55.8,5.85,5.85,0,0,1-1.4.19,4.58,4.58,0,0,1-1.78-.3,3.09,3.09,0,0,1-1.16-.81,3.13,3.13,0,0,1-.63-1.16,4.62,4.62,0,0,1-.2-1.34,9.44,9.44,0,0,1,.23-1.9q.23-1.09.49-2.23t.49-2.2a8.94,8.94,0,0,0,.23-1.83q0-1.64-1.16-1.64a1.5,1.5,0,0,0-.81.23,2.69,2.69,0,0,0-.69.63,4.78,4.78,0,0,0-.56.94,9,9,0,0,0-.44,1.15L99.28,24.13H94.67l3.39-16h4.61l-.34,1.66a5.88,5.88,0,0,1,1-.93,4.8,4.8,0,0,1,1-.54,4.26,4.26,0,0,1,.91-.25,5.63,5.63,0,0,1,.8-.06,4.79,4.79,0,0,1,1.42.2A2.83,2.83,0,0,1,109.36,10a4.56,4.56,0,0,1,.27,1.64,8.9,8.9,0,0,1-.12,1.38q-.12.74-.29,1.52T108.85,16q-.19.77-.37,1.47t-.29,1.3a5.61,5.61,0,0,0-.12,1.05,1.6,1.6,0,0,0,.27,1,1.17,1.17,0,0,0,1,.38,1.93,1.93,0,0,0,.91-.2,2.28,2.28,0,0,0,.7-.58,4.52,4.52,0,0,0,.57-.9q.26-.52.51-1.15Z"/><path class="cls-1" d="M124,2.36l4.73-.64L125.08,19a3.42,3.42,0,0,0-.11.49,3.32,3.32,0,0,0,0,.45,1.46,1.46,0,0,0,.28.91,1.23,1.23,0,0,0,1,.37,2.44,2.44,0,0,0,.66-.06l.38-.14a3.78,3.78,0,0,1-.38,1.48,3.31,3.31,0,0,1-.8,1,3.23,3.23,0,0,1-1.09.6,4.06,4.06,0,0,1-1.23.2,4.45,4.45,0,0,1-1.16-.15,3,3,0,0,1-1-.47,2.79,2.79,0,0,1-.74-.83,3.78,3.78,0,0,1-.45-1.21,9.9,9.9,0,0,1-.83,1,6,6,0,0,1-1,.85,5,5,0,0,1-1.23.59,4.76,4.76,0,0,1-1.47.22A4.86,4.86,0,0,1,114.3,24a3.47,3.47,0,0,1-1.36-.87,4.42,4.42,0,0,1-1-1.59,7.06,7.06,0,0,1-.36-2.41,13.67,13.67,0,0,1,.22-2.34,14.94,14.94,0,0,1,.67-2.5,14.19,14.19,0,0,1,1.13-2.4,9.62,9.62,0,0,1,1.59-2,7.29,7.29,0,0,1,2.07-1.41A6.11,6.11,0,0,1,119.86,8a3.3,3.3,0,0,1,2,.47,1.41,1.41,0,0,1,.62,1.16v.13Zm-3.42,16,1.56-7.33a2.45,2.45,0,0,0-.1-.33,1.39,1.39,0,0,0-.21-.37,1.07,1.07,0,0,0-.38-.3,1.42,1.42,0,0,0-.62-.12,2.13,2.13,0,0,0-1.27.44,4.73,4.73,0,0,0-1.1,1.16,9.35,9.35,0,0,0-.89,1.65A16,16,0,0,0,116.5,17a11.64,11.64,0,0,0-.14,1.7,4.58,4.58,0,0,0,.17,1.42,1.93,1.93,0,0,0,.41.74,1,1,0,0,0,.52.29,3.08,3.08,0,0,0,.5,0,1.8,1.8,0,0,0,.69-.15,2.7,2.7,0,0,0,.7-.44,3.4,3.4,0,0,0,.63-.72,4,4,0,0,0,.48-1Z"/></g></g></svg>